<?xml version="1.0" encoding="UTF-8"?>
<svg version="1.1" xmlns="http://www.w3.org/2000/svg" width="67" height="67">
<path d="M0 0 C22.11 0 44.22 0 67 0 C67 22.11 67 44.22 67 67 C44.89 67 22.78 67 0 67 C0 44.89 0 22.78 0 0 Z " fill="#5FFC62" transform="translate(0,0)"/>
<path d="M0 0 C1 2 1 2 0.56274414 3.87939453 C0.17783813 4.99483643 0.17783813 4.99483643 -0.21484375 6.1328125 C-0.48876953 6.93847656 -0.76269531 7.74414062 -1.04492188 8.57421875 C-1.33947266 9.41597656 -1.63402344 10.25773437 -1.9375 11.125 C-2.22818359 11.97449219 -2.51886719 12.82398438 -2.81835938 13.69921875 C-3.53889935 15.80177802 -4.26859808 17.90119449 -5 20 C-0.38 20 4.24 20 9 20 C4.87803677 24.90179411 0.6023487 29.646492 -3.73486328 34.35742188 C-8.19550875 39.20363048 -12.60458322 44.09449781 -17 49 C-18.23384786 45.29845642 -17.58331422 44.25348473 -16.1875 40.6875 C-14.68741024 36.80459618 -13.31964125 32.95892374 -12 29 C-16.62 29 -21.24 29 -26 29 C-21.87803677 24.09820589 -17.6023487 19.353508 -13.26513672 14.64257812 C-8.80449125 9.79636952 -4.39541678 4.90550219 0 0 Z " fill="#F9FFF9" transform="translate(42,9)"/>
</svg>
