<?xml version="1.0" encoding="UTF-8"?>
<svg version="1.1" xmlns="http://www.w3.org/2000/svg" width="396" height="346">
<path d="M0 0 C0.92425781 -0.02578125 1.84851563 -0.0515625 2.80078125 -0.078125 C6.54337821 0.34728521 8.55695882 1.1028749 11.6875 3.25 C13.83650975 6.07098633 15.46161436 9.12436083 17.125 12.25 C17.62870117 13.16265625 18.13240234 14.0753125 18.65136719 15.015625 C19.7515471 17.01182773 20.84449416 19.01202944 21.93115234 21.015625 C24.74584478 26.19897854 27.61123288 31.35407703 30.47439575 36.51074219 C31.40700438 38.19492835 32.33337082 39.88256642 33.25952148 41.5703125 C36.9835345 48.32552256 40.88893078 54.92098436 44.98486328 61.4543457 C46.73664218 64.33068929 48.24693104 67.2404213 49.68359375 70.28125 C51.37655826 73.60130492 53.41442376 76.71573622 55.41796875 79.85546875 C56.73903656 82.34720588 57.27810954 84.47305028 57.6875 87.25 C58.3475 87.25 59.0075 87.25 59.6875 87.25 C62.6875 92.875 62.6875 92.875 62.6875 96.25 C63.3475 96.25 64.0075 96.25 64.6875 96.25 C65.203125 97.3225 65.71875 98.395 66.25 99.5 C69.57041286 106.15268433 73.34213163 112.61793648 77.375 118.86328125 C79.32273302 122.40514099 79.37407959 125.31414261 78.6875 129.25 C76.73327058 133.07349235 74.43578854 134.61076307 70.5625 136.1875 C65.46678754 137.65062536 60.51251167 137.55865624 55.6875 135.25 C50.44481339 130.07652378 47.30033587 123.48289438 43.8125 117.0625 C43.15385469 115.86192197 42.49449839 114.66173375 41.83447266 113.46191406 C40.46431681 110.96978762 39.09721972 108.47602157 37.73242188 105.98095703 C34.53460797 100.13984698 31.29801168 94.32029651 28.0625 88.5 C27.13763794 86.83493408 27.13763794 86.83493408 26.1940918 85.13623047 C22.02705929 77.64050985 17.83870585 70.15708468 13.625 62.6875 C13.11308105 61.77838867 12.60116211 60.86927734 12.07373047 59.93261719 C9.09503545 54.6652572 6.01640179 49.48441282 2.79125977 44.36352539 C1.6875 42.25 1.6875 42.25 1.6875 39.25 C1.0275 39.25 0.3675 39.25 -0.3125 39.25 C-0.63154297 40.42175781 -0.63154297 40.42175781 -0.95703125 41.6171875 C-2.78813148 46.52474718 -5.36332776 50.86039276 -8 55.375 C-8.54092285 56.31134277 -9.0818457 57.24768555 -9.63916016 58.21240234 C-12.96526003 63.96309854 -16.32340982 69.69515306 -19.68310547 75.42626953 C-21.2047193 78.06321673 -22.67276312 80.72069534 -24.12109375 83.3984375 C-28.84718382 92.09018129 -33.7403392 100.68706576 -38.62988281 109.28759766 C-39.7279419 111.2208317 -40.82375064 113.15534616 -41.91699219 115.09130859 C-43.39662746 117.71038469 -44.88461474 120.32453006 -46.375 122.9375 C-46.81545654 123.72060547 -47.25591309 124.50371094 -47.7097168 125.31054688 C-52.87340336 134.31031453 -52.87340336 134.31031453 -57.64453125 136.1484375 C-63.09755572 137.19610519 -67.08367498 137.60809756 -72.3125 135.25 C-75.16019053 133.25055772 -76.99834493 131.84483225 -77.69189453 128.32397461 C-77.89545409 121.61781811 -75.75278076 117.47110665 -72.25 111.875 C-71.14482393 110.0300285 -70.04207985 108.18359862 -68.94140625 106.3359375 C-68.35246582 105.3572168 -67.76352539 104.37849609 -67.15673828 103.37011719 C-63.87449406 97.81715437 -60.79495194 92.15199402 -57.6875 86.5 C-53.08121015 78.16686662 -48.40151357 69.89164908 -43.53564453 61.70751953 C-40.32050309 56.29520536 -37.2808101 50.80168084 -34.3125 45.25 C-31.24007657 39.54407078 -28.11598284 33.88848862 -24.8125 28.3125 C-21.35142266 22.43098105 -18.28481293 16.39060254 -15.3125 10.25 C-14.6525 10.25 -13.9925 10.25 -13.3125 10.25 C-13.044375 9.321875 -12.77625 8.39375 -12.5 7.4375 C-11.38882183 4.45486385 -10.78795451 3.13134543 -8.3125 1.25 C-5.31194898 0.24981633 -3.14167059 0.05214391 0 0 Z " fill="#15A43A" transform="translate(82.3125,71.75)"/>
<path d="M0 0 C1.54300781 -0.03867188 1.54300781 -0.03867188 3.1171875 -0.078125 C6.6169311 0.30366521 8.2600926 1.23562955 11.125 3.25 C12.65771484 5.24926758 12.65771484 5.24926758 13.9609375 7.58203125 C14.46463867 8.46971191 14.96833984 9.35739258 15.48730469 10.27197266 C16.02774414 11.25472168 16.56818359 12.2374707 17.125 13.25 C17.72473633 14.31653809 18.32447266 15.38307617 18.94238281 16.48193359 C20.89233261 19.95942718 22.82368507 23.4468911 24.75 26.9375 C26.05396523 29.29597346 27.35898464 31.65386047 28.6640625 34.01171875 C29.26822998 35.10331299 29.87239746 36.19490723 30.49487305 37.31958008 C32.34504412 40.6455653 34.22967926 43.94960314 36.125 47.25 C36.94044818 48.72754342 37.75339485 50.20647362 38.5625 51.6875 C40.14125437 54.54658565 41.78804248 57.32119063 43.5625 60.0625 C46.29997945 64.35810454 48.46746333 68.89957603 50.69921875 73.47265625 C51.85516208 75.72437052 53.04506476 77.75091332 54.5 79.8125 C56.125 82.25 56.125 82.25 56.125 85.25 C56.785 85.25 57.445 85.25 58.125 85.25 C58.64964844 86.32894531 59.17429687 87.40789062 59.71484375 88.51953125 C62.50738521 94.10338451 65.60160614 99.51201957 68.6875 104.9375 C69.26435547 105.95650391 69.84121094 106.97550781 70.43554688 108.02539062 C73.54549046 113.52506284 73.54549046 113.52506284 76.78515625 118.94848633 C78.80819532 122.42355727 78.80627271 125.34456457 78.125 129.25 C76.15496136 133.10442344 73.84574134 134.61600436 69.9375 136.1875 C64.92888171 137.63975176 60.94451906 137.13834957 56.125 135.25 C52.56093172 133.19076055 50.96147581 131.16710059 49.234375 127.54296875 C47.35044037 123.67996449 45.31265746 119.92261023 43.1875 116.1875 C42.8054541 115.51178955 42.4234082 114.8360791 42.02978516 114.13989258 C40.7301878 111.84212442 39.42775808 109.54597749 38.125 107.25 C36.08200458 103.64658473 34.0404855 100.04233713 32 96.4375 C31.45633789 95.47755127 30.91267578 94.51760254 30.35253906 93.52856445 C26.00295737 85.83522615 21.71591365 78.10803673 17.4375 70.375 C11.82514891 60.23604835 6.0831267 50.18955725 0.125 40.25 C-0.22691406 40.87342285 -0.57882812 41.4968457 -0.94140625 42.13916016 C-2.58556499 45.05131729 -4.23022361 47.96319167 -5.875 50.875 C-6.46716309 51.92357178 -7.05932617 52.97214355 -7.66943359 54.05249023 C-11.5137651 60.8552491 -15.3811081 67.6437636 -19.2890625 74.41015625 C-20.91140402 77.31518651 -22.41026567 80.26282968 -23.875 83.25 C-24.535 83.25 -25.195 83.25 -25.875 83.25 C-25.98650391 83.80896973 -26.09800781 84.36793945 -26.21289062 84.94384766 C-26.97746682 87.60689586 -28.11308656 89.73120361 -29.46875 92.1484375 C-30.00886719 93.1187793 -30.54898438 94.08912109 -31.10546875 95.08886719 C-31.68941406 96.13204102 -32.27335937 97.17521484 -32.875 98.25 C-34.0948562 100.47074689 -35.31357197 102.69212053 -36.53125 104.9140625 C-37.81202015 107.2346399 -39.09327566 109.55494949 -40.375 111.875 C-40.85428955 112.74850098 -40.85428955 112.74850098 -41.34326172 113.63964844 C-52.55324692 134.06370847 -52.55324692 134.06370847 -58.125 136.4375 C-63.29016551 137.7309763 -67.90847573 137.03651952 -72.875 135.25 C-75.61142741 133.5814467 -76.48422468 132.48431912 -77.44287109 129.45629883 C-78.84747674 121.86532136 -75.7071844 116.9288718 -71.9375 110.5 C-71.3401001 109.44103516 -70.7427002 108.38207031 -70.12719727 107.29101562 C-66.38656227 100.7043442 -62.50050343 94.21127433 -58.453125 87.80859375 C-56.34107784 84.38435888 -54.59690626 80.88513545 -52.875 77.25 C-51.875 75.25 -50.875 73.25 -49.875 71.25 C-49.215 71.25 -48.555 71.25 -47.875 71.25 C-47.71064453 70.41662109 -47.71064453 70.41662109 -47.54296875 69.56640625 C-46.75820362 66.84496929 -45.57365227 64.65783436 -44.1875 62.1875 C-43.37539063 60.72957031 -43.37539063 60.72957031 -42.546875 59.2421875 C-41.99515625 58.25476563 -41.4434375 57.26734375 -40.875 56.25 C-39.89431817 54.43831936 -38.91512304 52.62583306 -37.9375 50.8125 C-35.20871443 45.79412655 -32.32356936 40.87801456 -29.390625 35.9765625 C-27.98511159 33.44808735 -26.87975153 30.95888893 -25.875 28.25 C-25.215 28.25 -24.555 28.25 -23.875 28.25 C-23.6584375 27.46367188 -23.441875 26.67734375 -23.21875 25.8671875 C-21.4318695 21.05715452 -18.9537324 16.79949177 -16.375 12.375 C-15.87613281 11.49585937 -15.37726563 10.61671875 -14.86328125 9.7109375 C-14.14205078 8.46570313 -14.14205078 8.46570313 -13.40625 7.1953125 C-12.96861328 6.43750488 -12.53097656 5.67969727 -12.08007812 4.89892578 C-11.48356445 4.08270752 -11.48356445 4.08270752 -10.875 3.25 C-10.215 3.25 -9.555 3.25 -8.875 3.25 C-8.875 2.59 -8.875 1.93 -8.875 1.25 C-5.71490467 0.19663489 -3.3196864 0.04967112 0 0 Z " fill="#15A43A" transform="translate(315.875,71.75)"/>
<path d="M0 0 C3.28636404 1.43778427 5.70241762 3.24290115 8 6 C8.96721517 8.9016455 9.12992372 10.75084465 9.14044189 13.76889038 C9.14900711 15.24092171 9.14900711 15.24092171 9.15774536 16.74269104 C9.15886322 17.8180864 9.15998108 18.89348175 9.16113281 20.00146484 C9.16609772 21.13503922 9.17106262 22.26861359 9.17617798 23.4365387 C9.1908093 27.19467775 9.19760288 30.95277461 9.203125 34.7109375 C9.20887519 37.31784059 9.21463294 39.92474367 9.22039795 42.53164673 C9.22996785 47.30157411 9.23586569 52.07149236 9.2388947 56.84142816 C9.24337577 63.85909571 9.26092752 70.87656851 9.2898953 77.89417684 C9.31412451 83.97517423 9.32183937 90.05609125 9.32357025 96.13713455 C9.32660105 98.72314133 9.33464388 101.30914721 9.34775543 103.89512253 C9.36477759 107.5101479 9.36294487 111.1246971 9.35644531 114.73974609 C9.3656601 115.81109299 9.37487488 116.88243988 9.3843689 117.98625183 C9.34865098 124.31636439 8.69250549 127.85874359 4.5 132.75 C0.85595182 135.78670682 -3.76701691 135.32274856 -8.2578125 135.29296875 C-12.24444261 134.86704673 -14.07216879 133.69043949 -17 131 C-17 130.34 -17 129.68 -17 129 C-17.66 129 -18.32 129 -19 129 C-19.11682464 113.17959814 -19.20498366 97.35931281 -19.25906086 81.53858662 C-19.2848378 74.19265126 -19.31997805 66.84698399 -19.37719727 59.5012207 C-19.42704849 53.09829964 -19.45929474 46.69557274 -19.47044247 40.292463 C-19.47695854 36.90224846 -19.49226092 33.51258932 -19.52865028 30.12255287 C-19.56485966 26.33697984 -19.56994841 22.55256358 -19.56762695 18.7668457 C-19.58560333 17.64403198 -19.60357971 16.52121826 -19.62210083 15.36437988 C-19.57150341 7.75708594 -19.57150341 7.75708594 -16.65202332 3.88957214 C-10.808919 -0.27365187 -7.09579547 -0.68668988 0 0 Z " fill="#15A43A" transform="translate(188,72)"/>
<path d="M0 0 C3.54273558 1.96684981 6.18131401 4.36262803 8 8 C8.47747649 11.4787573 8.67117492 13.95296712 6.73046875 16.98046875 C1.79055769 22.80980419 1.79055769 22.80980419 -2.57421875 23.2734375 C-12.01603812 23.58145168 -12.01603812 23.58145168 -16.1875 20.6875 C-19.50845776 17.51414037 -19.91563286 16.13895645 -20.25 11.625 C-19.97926023 7.69927335 -19.44616236 6.03661534 -17 3 C-11.60606107 -0.85549374 -6.43475432 -1.07954267 0 0 Z " fill="#15A43A" transform="translate(322,149)"/>
<path d="M0 0 C3 1.3125 3 1.3125 5 3 C5.5259375 3.41894531 6.051875 3.83789062 6.59375 4.26953125 C9.05430859 7.29738529 8.52004465 10.57743399 8.42578125 14.328125 C8 17 8 17 5.6875 20.125 C0.52623727 23.72588097 -4.8969132 23.75756587 -11 23 C-14.92815243 21.3244518 -17.31434309 19.14276152 -19.5 15.5 C-20.29825806 11.50870968 -19.47840136 9.00464285 -17.75 5.375 C-13.14233317 -0.87826212 -7.25767923 -0.81976799 0 0 Z " fill="#15A43A" transform="translate(88,149)"/>
<path d="M0 0 C3.52726164 1.35027985 5.82865426 2.88872926 8 6 C9.14969704 9.93931729 9.14969704 13.06068271 8 17 C5.24657925 20.94531247 1.9321358 22.56939376 -2.69921875 23.6015625 C-7.92474653 23.99511689 -11.47979212 23.24993181 -15.6875 20.0625 C-18.42404219 17.28654259 -19.56388364 15.28089392 -19.8125 11.375 C-19.48931151 7.86182137 -18.97617626 6.96973742 -16.6875 4.0625 C-10.9730627 -0.32299839 -7.114572 -1.05365265 0 0 Z " fill="#15A43A" transform="translate(222,169)"/>
</svg>
